<svg xmlns="http://www.w3.org/2000/svg" xmlns:xlink="http://www.w3.org/1999/xlink" viewBox="0 0 1000 1000" role="img" aria-labelledby="title"><title id="title">KithMoot symbol, gradient</title><defs><path id="arm" d="M483 169C593 91 738 105 846 184C939 251 995 366 985 469C980 536 941 575 865 595C811 610 779 598 770 563C758 516 741 482 720 448C691 406 706 378 715 336C733 254 675 195 602 178C557 168 515 164 483 169Z"/><path id="face" d="M483 169C593 91 738 105 846 184C908 241 928 332 919 412C915 462 897 497 869 503C824 513 793 472 768 423C737 363 725 284 680 235C634 185 563 163 483 169Z"/><linearGradient id="tb" gradientUnits="userSpaceOnUse" x1="698" y1="254" x2="923" y2="577"><stop stop-color="#006B80"/><stop offset="1" stop-color="#00BFC5"/></linearGradient><linearGradient id="tf" gradientUnits="userSpaceOnUse" x1="548" y1="164" x2="923" y2="456"><stop stop-color="#00BFC5"/><stop offset=".5" stop-color="#35E8DD"/><stop offset="1" stop-color="#00BFC5"/></linearGradient><linearGradient id="bb" gradientUnits="userSpaceOnUse" x1="698" y1="254" x2="923" y2="577"><stop stop-color="#031E50"/><stop offset="1" stop-color="#073B7A"/></linearGradient><linearGradient id="bf" gradientUnits="userSpaceOnUse" x1="548" y1="164" x2="923" y2="456"><stop stop-color="#073B7A"/><stop offset=".5" stop-color="#1765BA"/><stop offset="1" stop-color="#073B7A"/></linearGradient></defs><g transform="translate(500 500) scale(1.170732) translate(-633 -524)"><g transform="rotate(0 633 524)"><g transform="translate(795 350) scale(.975) translate(-795 -350)"><use xlink:href="#arm" fill="url(#tb)"/><use xlink:href="#face" fill="url(#tf)"/></g></g><g transform="rotate(90 633 524)"><g transform="translate(795 350) scale(.975) translate(-795 -350)"><use xlink:href="#arm" fill="url(#bb)"/><use xlink:href="#face" fill="url(#bf)"/></g></g><g transform="rotate(180 633 524)"><g transform="translate(795 350) scale(.975) translate(-795 -350)"><use xlink:href="#arm" fill="url(#tb)"/><use xlink:href="#face" fill="url(#tf)"/></g></g><g transform="rotate(270 633 524)"><g transform="translate(795 350) scale(.975) translate(-795 -350)"><use xlink:href="#arm" fill="url(#bb)"/><use xlink:href="#face" fill="url(#bf)"/></g></g></g></svg>
